# xmcd
#
# Track frame offsets: 
#        150
#        21490
#        47545
#        69204
#        103220
#        122574
#        145618
#        174581
#        201144
#        226476
#
# Disc length: 3302 seconds
#
# Revision: 0
# Processed by: cddbd v1.5.2PL0 Copyright (c) Steve Scherf et al.
# Submitted via: ExactAudioCopy v0.95b1
#
DISCID=850ce40a
DTITLE=Jerome Godboo - Live in Tel-aviv
DYEAR=2002
DGENRE=Blues
TTITLE0=Little Wing
TTITLE1=Teena Neena Noo
TTITLE2=Eye On You
TTITLE3=Voodoo Child
TTITLE4=Cold Woman Blues
TTITLE5=Jesse
TTITLE6=The Night I Slept Outside
TTITLE7=Stand Up For My Baby
TTITLE8=October 17
TTITLE9=Play Me
EXTD=
EXTT0=
EXTT1=
EXTT2=
EXTT3=
EXTT4=
EXTT5=
EXTT6=
EXTT7=
EXTT8=
EXTT9=
PLAYORDER=
